<svg xmlns="http://www.w3.org/2000/svg" width="266" height="259" viewBox="0 0 266 259">
  <g fill="none" transform="translate(1 1)">
    <path fill="#326DE6" stroke="#FFF" stroke-linejoin="round" stroke-width="2" d="M2.82952799,169.796318 C3.14008355,170.272705 3.47380286,170.733738 3.82949664,171.177772 L67.353958,250.426399 C70.6843828,254.580934 75.7346114,257 81.0752425,257 L182.946298,256.989544 C188.286498,256.988773 193.335831,254.568587 196.665359,250.413888 L260.173112,171.150727 C263.501941,166.995227 264.748292,161.557579 263.55943,156.376715 L240.881258,57.5489581 C239.691927,52.36809 236.196722,48.0079753 231.384873,45.702634 L139.597012,1.72834937 C134.785162,-0.576641902 129.180445,-0.576090326 124.369053,1.729848 L32.5904319,45.7234056 C27.7790766,48.0300059 24.2849459,52.3911243 23.0969997,57.5724134 L0.43949627,156.40498 C-0.61532827,161.007087 0.246821995,165.838102 2.82952799,169.797398 L2.82952799,169.796318 Z"/>
    <path fill="#FFF" d="M126.490887,39.0227978 C126.483923,39.622508 126.466513,40.2341632 126.483923,40.6635544 C126.556347,42.6069962 126.983443,44.0973652 127.239123,45.8878844 C127.702361,49.7202172 128.091956,52.8969696 127.852433,55.8496163 C127.634811,57.3273459 126.776372,57.9083402 126.059613,58.5923244 L125.922076,61.0175205 C122.593646,61.291142 119.270718,61.7943208 115.977665,62.5399741 C102.100566,65.6820724 89.5980023,72.8607126 79.9680809,83.014917 L78.0811084,81.681672 C77.0237798,81.7618834 76.0323645,82.068145 74.7381938,81.3163804 C72.2739837,79.6621857 70.0266991,77.3781061 67.310988,74.6275504 C66.0666091,73.3118408 65.1647495,72.0493971 63.6863141,70.7811546 C63.3325481,70.4776709 62.7740783,70.0638705 62.3957645,69.7625396 C59.7546297,67.7147786 56.1228188,67.9545871 54.2441741,70.302317 C52.368418,72.6513808 52.9426932,76.2345041 55.533296,78.3456428 C56.0108453,78.7293379 56.4743972,79.1210888 56.8184485,79.3744318 C58.387345,80.5295797 59.8219428,81.1253315 61.3851289,82.0423454 C64.6784606,84.0705473 67.4116163,85.7471734 69.5771447,87.7748891 C70.6000717,88.8658333 70.5209618,89.8974696 70.6103434,90.8827847 L72.4111377,92.4887137 C72.0624205,93.0117196 71.7193789,93.5392743 71.3838583,94.0727321 C62.3718436,108.39897 58.812874,125.416768 61.2136777,142.059794 L58.9075482,142.723465 C58.3112993,143.597526 57.9341694,144.561417 56.5379079,145.10175 C53.7046462,145.991714 50.5122562,146.319991 46.6626484,146.722436 C44.8552384,146.872442 43.3039257,146.788064 41.3878093,147.149987 C40.9525657,147.232282 40.3321172,147.394094 39.8656405,147.502015 C36.5321222,148.305546 34.4559863,151.286526 35.1251761,154.214873 C35.7972683,157.141964 38.9644036,158.928283 42.2347237,158.224782 C42.8265505,158.098805 43.4277438,157.980051 43.8431403,157.868935 C45.7269443,157.365965 47.0883166,156.618819 48.7819017,155.97178 C52.4253433,154.668606 55.4437403,153.58287 58.3836194,153.158687 C59.876679,153.041322 60.6366492,153.746314 61.4648307,154.290953 L63.9604131,153.868298 C69.118015,169.777547 79.7350341,183.470288 94.043685,192.445837 C94.5880877,192.787169 95.1375044,193.119439 95.6894281,193.445388 L94.7136119,195.799436 C95.0270221,196.807426 95.5470164,197.702737 95.100143,199.128277 C94.0313937,201.892202 92.2982536,204.585776 90.2136109,207.838191 C89.2042287,209.340817 88.1712042,210.498118 87.2603612,212.217732 C87.0423912,212.629206 86.7618854,213.264959 86.5514712,213.699802 C85.1357097,216.724609 86.1785911,220.20243 88.8921417,221.506279 C91.6059423,222.806731 94.980611,221.451042 96.4679222,218.462899 C96.7353359,217.91833 97.0159113,217.378761 97.1874669,216.986802 C97.9676324,215.204443 98.2309373,213.677023 98.7795532,211.953139 C100.029503,208.29991 101.060404,205.269691 102.560845,202.713031 C103.399751,201.475762 104.425881,201.322909 105.369211,201.016787 L106.643012,198.720415 C119.757424,203.715187 134.15389,204.796895 148.022249,201.656741 C151.256317,200.924457 154.414027,199.968622 157.479848,198.811356 L158.610855,200.849315 C159.597395,201.234052 160.624153,201.386071 161.463163,202.623271 C162.963674,205.179861 163.994261,208.210219 165.24442,211.863413 C165.79314,213.587228 166.056968,215.114752 166.837238,216.897076 C167.014469,217.301848 167.310226,217.868293 167.519665,218.297754 C169.045263,221.361344 172.421391,222.716901 175.135453,221.415025 C177.847905,220.110401 178.889695,216.633284 177.47393,213.610042 C177.215569,213.058042 176.967376,212.503993 176.767407,212.126548 C175.85646,210.406969 174.82361,209.249564 173.814158,207.747007 C171.729341,204.494696 169.995818,201.801677 168.926894,199.037823 C168.479917,197.612317 169.000015,196.716971 169.348245,195.790581 L168.429115,193.572233 C178.170911,187.848648 186.5013,179.847199 192.61985,170.12065 C195.860012,164.96983 198.392329,159.469795 200.200018,153.76562 L202.446571,154.144766 C203.363508,153.615337 204.123513,152.909754 205.616572,153.027016 C208.556486,153.45106 211.574779,154.536413 215.21829,155.839379 C216.91191,156.486348 218.273944,157.233668 220.157782,157.736535 C220.586062,157.850775 221.215529,157.973696 221.682946,158.078214 C225.036474,158.796469 228.204523,157.008512 228.875259,154.080007 C229.542648,151.152277 227.466519,148.173096 224.214462,147.391906 C223.622705,147.251936 223.031017,147.099152 222.609074,147.019635 C220.692993,146.657781 219.141645,146.741152 217.33427,146.59139 C213.484628,146.189118 210.292307,145.861223 207.458976,144.971433 C206.062714,144.431134 205.684888,143.467174 205.175653,142.618114 L202.859774,141.952186 C204.020621,133.489018 203.662711,124.803064 201.706692,116.310832 C199.732671,107.740403 196.208033,99.6923896 191.389469,92.5182287 L193.277172,90.8337551 C193.43386,89.7890627 193.355168,88.7574611 194.37719,87.6664475 C196.542614,85.6386623 199.275978,83.9615848 202.569205,81.9331746 C204.132322,81.0160912 205.567024,80.4197839 207.135851,79.2645318 C207.51124,78.9881324 208.040287,78.5371778 208.419054,78.2364025 C211.008452,76.123111 211.582116,72.5389911 209.705181,70.1901252 C207.825962,67.8439029 204.195317,67.6051019 201.555088,69.6540632 C201.082727,70.0262301 200.59212,70.3931885 200.265618,70.6733033 C198.787252,71.9416153 197.885253,73.2046492 196.640979,74.5204283 C193.925407,77.2711229 191.67861,79.5549247 189.214469,81.2092583 C187.920333,81.9610229 186.928883,81.6547266 185.945755,81.5224646 L183.787991,83.0478002 C179.701959,78.7580542 175.068565,74.9532572 169.963053,71.7506705 C160.241417,65.6524879 149.294274,62.0347119 138.0715,61.0497093 L137.937097,58.6802792 C137.215115,57.9060137 136.356606,57.3250194 136.139019,55.8472898 C135.899461,52.8946431 136.289091,49.7178908 136.752329,45.885558 C137.007904,44.0950387 137.435035,42.6046697 137.507564,40.661228 C137.524974,40.1961756 137.5006,39.5028507 137.5006,39.0200199 C137.459016,35.6831369 135.006701,33 131.994838,33 C128.981812,33.0049839 126.530797,35.6867467 126.490887,39.0227978 Z M123.464098,104.394512 L123.341882,104.453195 C123.2322,107.030515 121.108873,109.086287 118.500963,109.086287 C117.432701,109.086287 116.446021,108.743566 115.644755,108.160072 L91.9395433,91.4763489 C99.408428,84.1518004 108.826438,78.9630967 119.218837,76.6100214 C121.167544,76.1687894 123.129378,75.8354087 125.095914,75.6016498 L123.464098,104.394512 Z M162.281351,83.9593278 C165.75745,86.1398272 168.957849,88.670305 171.847762,91.4907592 L148.360032,108.098785 L148.266368,108.0592 C146.180263,109.578667 143.244701,109.204243 141.618631,107.171145 C140.9525,106.338232 140.60615,105.356215 140.564123,104.367567 L138.899508,75.6405402 C147.127423,76.6598497 155.118669,79.4663103 162.281351,83.9593278 Z M104.933515,121.496237 L104.905659,121.618117 C106.858719,123.311306 107.145492,126.248744 105.519492,128.282085 C104.853395,129.115033 103.970547,129.67054 103.013359,129.931348 L75.2701311,138.011967 C73.9310432,125.573579 76.7361708,112.991401 83.3474167,102.245959 L104.933515,121.496237 Z M187.605983,119.507203 C189.008651,125.596913 189.381533,131.809197 188.771565,137.904567 L160.953998,129.903049 L160.929624,129.797489 C158.43425,129.111387 156.897875,126.589034 157.478003,124.053591 C157.71582,123.01494 158.269694,122.132407 159.018591,121.48325 L180.4878,102.251375 C183.762086,107.526784 186.18688,113.345928 187.605983,119.507203 Z M140.552911,104.370379 C140.595739,105.359962 140.942924,106.343197 141.609648,107.176875 C143.238747,109.213757 146.17887,109.589466 148.269885,108.069339 L148.348577,108.107535 L144.762169,110.64343 L143.282585,108.800547 L140.785296,108.800547 L140.532159,104.360136 L140.552911,104.370379 Z M123.214059,108.797318 L120.679201,108.796554 L119.147457,110.703988 L115.594859,108.193024 L115.641169,108.17219 C116.443863,108.755928 117.430786,109.099135 118.500267,109.099135 C121.11326,109.099135 123.241219,107.04055 123.352989,104.462188 L123.463367,104.409409 L123.214059,108.797318 Z M159.005395,121.474431 C158.256218,122.124976 157.701997,123.00876 157.464075,124.048487 C156.882903,126.588409 158.421541,129.114338 160.916636,129.797142 L160.94101,129.898188 L156.828794,128.715295 L157.372987,126.349546 L155.74636,124.324053 L158.995192,121.425123 L159.005395,121.474431 Z M108.163266,124.376416 L106.58368,126.342497 L107.155068,128.83148 L102.998735,130.028297 L103.019627,129.940446 C103.977685,129.678631 104.861891,129.122776 105.528684,128.288925 C107.157575,126.251903 106.870105,123.309604 104.919065,121.614783 L104.943438,121.50464 L108.163266,124.376416 Z M136.402184,122.980911 L141.918218,129.850859 L139.948166,138.416323 L131.976001,142.22678 L124.004601,138.413371 L122.037509,129.847179 L127.554935,122.980147 L136.402184,122.980911 Z M157.11682,146.494789 L157.071207,146.551388 C156.093963,146.372909 155.055124,146.491317 154.091494,146.954008 C151.737488,148.084676 150.715675,150.860093 151.736826,153.231433 L151.702007,153.273796 L150.061417,149.320347 L152.338855,148.232077 L152.90213,145.783443 L157.11682,146.494789 Z M111.609908,148.225584 L113.966804,149.353474 L112.273254,153.438177 L112.196651,153.341299 C112.58851,152.43109 112.703762,151.395426 112.465806,150.355838 C111.884355,147.815638 109.398731,146.204639 106.853461,146.669309 L106.813767,146.620349 L111.07522,145.899419 L111.609908,148.225584 Z M157.072704,146.563125 L185.74993,151.328479 C184.371949,155.184667 182.571294,158.909635 180.355974,162.431296 C175.846084,169.600665 169.835927,175.595823 162.821088,180.066756 L151.70817,153.286505 C150.727375,150.8636 151.746332,148.093461 154.095882,146.964946 C154.817759,146.618405 155.582012,146.464857 156.330666,146.485344 C156.581122,146.492289 156.828724,146.520068 157.072704,146.563125 Z M112.45341,150.358234 C112.691227,151.396885 112.576816,152.43182 112.184255,153.340743 L112.26817,153.449775 L101.27806,179.954252 C90.6711041,173.165314 82.6562847,163.119482 78.3896787,151.42574 L106.799213,146.622329 C107.167951,146.622606 107.484704,146.596564 107.796861,146.601078 C109.981992,146.632572 111.945568,148.139643 112.45341,150.358234 Z M136.365415,160.769532 L136.26409,160.768768 C135.794828,159.895436 135.053974,159.159852 134.090345,158.697092 C131.736408,157.566667 128.924142,158.500557 127.701421,160.774636 L129.817158,156.935601 L131.973981,157.967411 L134.216147,156.895982 L136.365415,160.769532 Z M134.08359,158.708099 C135.046105,159.170339 135.785671,159.90502 136.253644,160.777587 L136.372205,160.781338 L150.376603,186.014239 C148.547257,186.629644 146.680723,187.156226 144.780415,187.58652 C134.398532,189.937235 123.653481,189.320093 113.726515,185.945278 L127.680878,160.787206 C128.54642,159.222042 130.135164,158.293639 131.809877,158.232456 C132.5703,158.204365 133.349316,158.355412 134.08359,158.708099 Z"/>
  </g>
</svg>
